<?xml version="1.0" encoding="UTF-8"?>
<svg width="161px" height="160px" viewBox="0 0 161 160" version="1.1" xmlns="http://www.w3.org/2000/svg" xmlns:xlink="http://www.w3.org/1999/xlink">
    <!-- Generator: Sketch 50.2 (55047) - http://www.bohemiancoding.com/sketch -->
    <title>brand-logo</title>
    <desc>Created with Sketch.</desc>
    <defs></defs>
    <g id="brand-logo" stroke="none" stroke-width="1" fill="none" fill-rule="evenodd">
        <g id="Vegoresto/picto" transform="translate(0.000000, 1.000000)" fill-rule="nonzero">
            <path d="M113.341969,6.51188971 C102.751295,1.54025256 91.2176166,-1 79.5388601,-1 C35.6165803,-1 0,34.6361145 0,78.5824838 C0,111.170295 19.5854922,139.221941 47.6580311,151.487732 C58.2487047,156.459369 69.7823834,159.035911 81.4611399,158.999622 C125.38342,158.999622 161,123.363507 161,79.4171382 C160.963731,46.8293268 141.378238,18.81397 113.341969,6.51188971 Z" id="Shape" fill="#FFFFFF"></path>
            <path d="M1.91648,79.1960971 C1.91648,35.3902903 37.4256,-0.13184198 81.21536,-0.13184198 C92.17184,-0.13184198 102.98368,2.11089957 113,6.48786292 C102.44128,1.53212756 90.9424,-1 79.29888,-1 C35.50912,-1 0,34.5221323 0,78.3279391 C0,110.811518 19.5264,138.773441 47.51424,151 C20.57504,138.339362 1.91648,110.956211 1.91648,79.1960971 Z" id="Shape" fill="#F59E34"></path>
            <path d="M82.4638237,4 C40.7886919,4 7,37.8248682 7,79.5 C7,121.175132 40.7886919,155 82.5,155 C124.211308,155 158,121.211308 158,79.5 C158,37.7886919 124.175132,4 82.4638237,4 Z M83.1511739,149.935314 C44.6233828,149.935314 13.4032103,118.715141 13.4032103,80.1873503 C13.4032103,41.6595592 44.6595592,10.4393867 83.1511739,10.4393867 C121.642789,10.4393867 152.899138,41.6595592 152.899138,80.1873503 C152.899138,118.715141 121.678965,149.935314 83.1511739,149.935314 Z" id="Shape" fill="#F59E34"></path>
            <path d="M85.2577059,15 C83.1475493,15 81.0737746,15.1088341 79,15.2902243 C80.3097524,15.2176682 81.6195048,15.1813902 82.9656392,15.1813902 C119.274886,15.1813902 148.707933,44.530324 148.707933,80.7358073 C148.707933,114.837164 122.585649,142.880089 89.2233451,146 C123.67711,143.96843 151,115.453891 151,80.5544171 C151,44.3489338 121.566953,15 85.2577059,15 Z" id="Shape" fill="#F59E34"></path>
            <path d="M94.6672269,78.0216207 C94.8890756,77.9854137 95,77.7681717 95,77.5871367 L94.9260504,76.2836845 C94.0386555,59.085357 90.7478992,42.0680645 85.1277311,25.7387052 C84.4252101,23.8197339 82.7613445,22.4076607 80.6907563,22.0455907 C79.0268908,21.7559346 77.6957983,22.8783518 77.7327731,24.507667 L78.5092437,79.3250729 C78.5092437,79.4699009 78.4352941,79.614729 78.3243697,79.687143 L77.7697479,80.08542 C77.1042017,80.5923181 76.697479,81.3164582 76.6235294,82.1492193 L73.2957983,124.511415 C73.2588235,124.801071 73.2218487,125.054521 73.1848739,125.344177 C73.0739496,126.213145 73,127.045906 73,127.914874 L73,128.095909 C73.1109244,135.590759 77.7327731,142.071813 82.3176471,141.999399 C86.9394958,141.926985 90.0823529,135.33731 89.9714286,127.84246 C89.9714286,127.806253 89.9714286,127.661425 89.9714286,127.661425 C89.9344538,126.575215 89.8605042,125.489005 89.6756303,124.439001 C89.4907563,123.207963 89.3058824,122.013132 89.1579832,120.782094 L84.5731092,81.5337002 C84.4991597,80.9905952 84.2773109,80.4836971 83.9445378,80.08542 L83.6117647,79.687143 C83.4638655,79.5061079 83.5008403,79.2164519 83.6857143,79.0716239 C83.7596639,78.9992099 83.8705882,78.9630029 83.9815126,78.9630029 C87.6420168,79.1802449 91.1915966,78.9267959 94.6672269,78.0216207 Z" id="Shape" fill="#F59E33"></path>
            <path d="M68.9701293,34.0758429 C68.2446409,29.8437968 66.9750363,30.6395662 66.9750363,30.6395662 C64.4721015,32.4843042 63.5652411,50.6061426 63.5652411,50.6061426 L63.5652411,50.6423139 C61.7515202,51.8359679 59.3211342,51.4019119 58.0152552,49.6656879 C58.6681947,47.5677505 59.3574086,44.4570158 59.9740737,39.8994277 C62.0054411,27.9628875 59.7564272,28.6501428 59.7564272,28.6501428 C59.7564272,28.6501428 57.8701575,27.2756321 55.8387901,39.2121723 C54.9319297,43.6974178 54.5691855,46.8443238 54.4603622,49.0507752 C52.6466414,50.2806005 50.2162554,49.8827159 48.9103763,48.1464918 C48.9103763,48.1464918 54.0250692,30.7480802 52.3201716,28.1799155 L52.356446,28.1799155 C52.356446,28.1799155 51.4133112,26.9862614 49.3456694,30.7480802 C47.1692043,34.6545843 41.0388277,45.7953551 44.4848974,52.7764226 C47.1329299,58.346808 51.6672321,59.8298327 51.6672321,59.8298327 C51.6672321,59.8298327 51.8486042,59.9021754 52.1387995,60.0106894 L38.717265,112.603809 C38.4633441,113.363407 38.2456976,114.159176 38.1368743,114.991117 L38.1368743,115.027288 C37.5202092,119.331677 38.9711859,123.961608 42.8162742,126.855315 C42.9976463,127 43.2515672,127.036171 43.4692137,126.963829 C48.0760647,125.480804 50.9417437,121.610471 51.7760553,117.342254 L51.7760553,117.306082 C51.921153,116.510313 51.9937018,115.678372 51.9937018,114.882603 L56.6731017,60.7702874 C56.8544738,60.7702874 56.9995715,60.7702874 57.1809436,60.7702874 C57.4348645,60.7702874 61.9328923,60.8788014 66.2858224,56.50207 C71.8358083,51.0040272 69.7318921,38.4887457 68.9701293,34.0758429 Z" id="Shape" fill="#76A1A2"></path>
            <path d="M122.830444,94.8583396 C120.99318,90.1208412 116.562133,78.4228645 115.949711,76.8922881 C116.16586,76.7829612 116.418034,76.6371921 116.634182,76.4914229 C127.765839,66.7613301 116.16586,52.5123928 114.760894,50.9089318 C114.652819,50.7996049 114.58077,50.690278 114.472695,50.5445088 C112.959655,48.5401826 110.257796,47.6291253 107.772087,48.1393174 C105.286377,48.6495095 103.19694,50.5809511 102.548494,53.0225849 C102.512469,53.1683541 102.476444,53.3141233 102.440419,53.4598924 C101.791973,55.500661 96.6764546,73.2116163 110.690094,77.6940186 C110.942267,77.7669032 111.194441,77.8033455 111.482639,77.8033455 C111.554688,79.4432488 112.02301,91.9793982 112.16711,97.0813195 C112.419283,104.661317 113.031704,109.981892 113.319903,112.095545 C113.500026,113.407468 113.860274,114.682948 114.436671,115.849101 C115.949711,118.910254 118.723619,121.351888 122.398147,121.971407 C122.614296,122.044292 122.866469,121.971407 123.046593,121.825638 C126.180749,119.784869 127.801864,116.432178 127.981988,113.043045 C128.054037,111.731122 127.909938,110.4192 127.54969,109.143719 C127.045343,107.066508 125.568327,101.928145 122.830444,94.8583396 Z" id="Shape" fill="#7AAB52"></path>
        </g>
    </g>
</svg>