<?xml version="1.0" encoding="UTF-8"?>
<svg width="53px" height="52px" viewBox="0 0 53 52" version="1.1" xmlns="http://www.w3.org/2000/svg" xmlns:xlink="http://www.w3.org/1999/xlink">
    <!-- Generator: Sketch 50.2 (55047) - http://www.bohemiancoding.com/sketch -->
    <title>social-twitter</title>
    <desc>Created with Sketch.</desc>
    <defs>
        <path d="M30.5,55.5961538 C15.9228689,55.5961538 4.10576923,44.1665001 4.10576923,30.0673077 C4.10576923,15.9681153 15.9228689,4.53846154 30.5,4.53846154 C45.0771311,4.53846154 56.8942308,15.9681153 56.8942308,30.0673077 C56.8942308,44.1665001 45.0771311,55.5961538 30.5,55.5961538 Z M30.5,53.3269231 C43.7813861,53.3269231 54.5480769,42.9132386 54.5480769,30.0673077 C54.5480769,17.2213768 43.7813861,6.80769231 30.5,6.80769231 C17.2186139,6.80769231 6.45192308,17.2213768 6.45192308,30.0673077 C6.45192308,42.9132386 17.2186139,53.3269231 30.5,53.3269231 Z M45.6543942,22.161875 C44.8602212,23.3118077 43.8548942,24.3221827 42.6970673,25.1288942 C42.7082115,25.3751058 42.7134904,25.6230192 42.7134904,25.8715 C42.7134904,33.4484615 36.7513269,42.185 25.8469904,42.185 C22.4996154,42.185 19.3839231,41.2364615 16.75975,39.6088558 C17.2237019,39.6621827 17.6958654,39.6894135 18.1738942,39.6894135 C20.9517404,39.6894135 23.5072885,38.7726442 25.536125,37.2346731 C22.9424519,37.1887212 20.7534904,35.5304808 19.9986154,33.2527404 C20.3605096,33.32025 20.7317885,33.3559904 21.1142115,33.3559904 C21.655,33.3559904 22.1787788,33.2856442 22.6761635,33.1551635 C19.9640096,32.6275673 17.9205096,30.3106827 17.9205096,27.5331442 C17.9205096,27.50875 17.9205096,27.4843558 17.9210962,27.4605288 C18.7205481,27.8899808 19.6349615,28.1481058 20.6062692,28.1781731 C19.0155769,27.1502115 17.9691923,25.3949615 17.9691923,23.4059808 C17.9691923,22.3541923 18.2612885,21.3693462 18.7715769,20.5229231 C21.6954712,23.9920096 26.0640096,26.2742885 30.9909327,26.5136923 C30.8894615,26.0933173 30.8372596,25.6559231 30.8372596,25.2071827 C30.8372596,22.0404712 33.4913462,19.4734038 36.7648173,19.4734038 C38.4698846,19.4734038 40.0107212,20.1700577 41.0917115,21.28425 C42.4425096,21.0266923 43.7106058,20.5495865 44.8561154,19.8920769 C44.4132788,21.2320577 43.4742308,22.3553269 42.2495385,23.0644615 C43.4490096,22.9266058 44.5921731,22.6185577 45.6543942,22.161875 Z" id="path-1"></path>
    </defs>
    <g id="social-twitter" stroke="none" stroke-width="1" fill="none" fill-rule="evenodd">
        <g id="icon/twitter" transform="translate(-4.000000, -4.000000)">
            <mask id="mask-2" fill="white">
                <use xlink:href="#path-1"></use>
            </mask>
            <use id="Mask" fill="#D8D8D8" fill-rule="evenodd" xlink:href="#path-1"></use>
            <g id="color/white" mask="url(#mask-2)" fill="#FFFFFF" fill-rule="evenodd">
                <rect id="Rectangle-2" x="0" y="0" width="61" height="59"></rect>
            </g>
        </g>
    </g>
</svg>