<?xml version="1.0" encoding="UTF-8"?>
<svg width="53px" height="52px" viewBox="0 0 53 52" version="1.1" xmlns="http://www.w3.org/2000/svg" xmlns:xlink="http://www.w3.org/1999/xlink">
    <!-- Generator: Sketch 50.2 (55047) - http://www.bohemiancoding.com/sketch -->
    <title>social-instagram</title>
    <desc>Created with Sketch.</desc>
    <defs>
        <path d="M30.5,55.5961538 C15.9228689,55.5961538 4.10576923,44.1665001 4.10576923,30.0673077 C4.10576923,15.9681153 15.9228689,4.53846154 30.5,4.53846154 C45.0771311,4.53846154 56.8942308,15.9681153 56.8942308,30.0673077 C56.8942308,44.1665001 45.0771311,55.5961538 30.5,55.5961538 Z M30.5,53.3269231 C43.7813861,53.3269231 54.5480769,42.9132386 54.5480769,30.0673077 C54.5480769,17.2213768 43.7813861,6.80769231 30.5,6.80769231 C17.2186139,6.80769231 6.45192308,17.2213768 6.45192308,30.0673077 C6.45192308,42.9132386 17.2186139,53.3269231 30.5,53.3269231 Z M37.9229154,17.4798758 L23.3199115,17.4798758 C20.7833274,17.4798758 18.719682,19.6244327 18.719682,22.2610848 L18.719682,27.3117983 L18.719682,37.4406748 C18.719682,40.077327 20.7833274,42.2218839 23.3199115,42.2218839 L37.9233955,42.2218839 C40.4599797,42.2218839 42.5231449,40.077327 42.5231449,37.4406748 L42.5231449,27.3112992 L42.5231449,22.2605857 C42.5226648,19.6239336 40.4594995,17.4798758 37.9229154,17.4798758 Z M39.2423425,20.3311333 L39.7685768,20.329137 L39.7685768,20.8736358 L39.7685768,24.522926 L35.7473972,24.5364013 L35.7334731,20.3431113 L39.2423425,20.3311333 Z M27.2239368,27.3112992 C27.9864005,26.2148153 29.2232433,25.4956376 30.6214135,25.4956376 C32.0195836,25.4956376 33.2564265,26.2148153 34.0179299,27.3112992 C34.5139154,28.0269833 34.8111225,28.9023738 34.8111225,29.8506303 C34.8111225,32.2517155 32.9299307,34.2051239 30.6209333,34.2051239 C28.3104955,34.2051239 26.4312242,32.2517155 26.4312242,29.8506303 C26.4317044,28.9023738 26.7279513,28.0269833 27.2239368,27.3112992 Z M40.2035844,37.4401758 C40.2035844,38.7482706 39.1804043,39.810817 37.9229154,39.810817 L23.3199115,39.810817 C22.0619425,39.810817 21.0387623,38.7482706 21.0387623,37.4401758 L21.0387623,27.3112992 L24.5918046,27.3112992 C24.2849946,28.0958567 24.1126241,28.9527811 24.1126241,29.8506303 C24.1126241,33.5802728 27.0318805,36.6166899 30.6214135,36.6166899 C34.2104663,36.6166899 37.1297227,33.5802728 37.1297227,29.8506303 C37.1297227,28.9527811 36.9563919,28.0958567 36.6495819,27.3112992 L40.2035844,27.3112992 L40.2035844,37.4401758 Z" id="path-1"></path>
    </defs>
    <g id="social-instagram" stroke="none" stroke-width="1" fill="none" fill-rule="evenodd">
        <g id="icon/instagram" transform="translate(-4.000000, -4.000000)">
            <mask id="mask-2" fill="white">
                <use xlink:href="#path-1"></use>
            </mask>
            <use id="Mask" fill="#D8D8D8" fill-rule="evenodd" xlink:href="#path-1"></use>
            <g id="color/white" mask="url(#mask-2)" fill="#FFFFFF" fill-rule="evenodd">
                <rect id="Rectangle-2" x="0" y="0" width="61" height="59"></rect>
            </g>
        </g>
    </g>
</svg>