<?xml version="1.0" encoding="UTF-8"?>
<svg width="53px" height="52px" viewBox="0 0 53 52" version="1.1" xmlns="http://www.w3.org/2000/svg" xmlns:xlink="http://www.w3.org/1999/xlink">
    <!-- Generator: Sketch 50.2 (55047) - http://www.bohemiancoding.com/sketch -->
    <title>social-facebook</title>
    <desc>Created with Sketch.</desc>
    <defs>
        <path d="M30.5,55.5961538 C15.9228689,55.5961538 4.10576923,44.1665001 4.10576923,30.0673077 C4.10576923,15.9681153 15.9228689,4.53846154 30.5,4.53846154 C45.0771311,4.53846154 56.8942308,15.9681153 56.8942308,30.0673077 C56.8942308,44.1665001 45.0771311,55.5961538 30.5,55.5961538 Z M30.5,53.3269231 C43.7813861,53.3269231 54.5480769,42.9132386 54.5480769,30.0673077 C54.5480769,17.2213768 43.7813861,6.80769231 30.5,6.80769231 C17.2186139,6.80769231 6.45192308,17.2213768 6.45192308,30.0673077 C6.45192308,42.9132386 17.2186139,53.3269231 30.5,53.3269231 Z M37.2041346,24.8134712 L36.6909135,29.6526058 L32.7200481,29.6526058 C32.7200481,35.7891731 32.7200481,43.3457115 32.7200481,43.3457115 L26.8353077,43.3457115 C26.8353077,43.3457115 26.8353077,35.8629231 26.8353077,29.6526058 L24.0375192,29.6526058 L24.0375192,24.8134712 L26.8353077,24.8134712 L26.8353077,21.6830673 C26.8353077,19.4416346 27.9362404,15.9390769 32.7740096,15.9390769 L37.1319904,15.9555288 L37.1319904,20.6517019 C37.1319904,20.6517019 34.4820096,20.6517019 33.9676154,20.6517019 C33.4520481,20.6517019 32.7200481,20.90075 32.7200481,21.9689904 L32.7200481,24.8134712 L37.2041346,24.8134712 Z" id="path-1"></path>
    </defs>
    <g id="social-facebook" stroke="none" stroke-width="1" fill="none" fill-rule="evenodd">
        <g id="icon/facebook" transform="translate(-4.000000, -4.000000)">
            <mask id="mask-2" fill="white">
                <use xlink:href="#path-1"></use>
            </mask>
            <use id="Mask" fill="#D8D8D8" fill-rule="evenodd" xlink:href="#path-1"></use>
            <g id="color/white" mask="url(#mask-2)" fill="#FFFFFF" fill-rule="evenodd">
                <rect id="Rectangle-2" x="0" y="0" width="61" height="59"></rect>
            </g>
        </g>
    </g>
</svg>